<svg width="95" height="45" viewBox="0 0 95 45" fill="none" xmlns="http://www.w3.org/2000/svg">
	<path d="M25.83 0.695999L18.566 14.584V23H15.654V14.584L8.358 0.695999H11.59L17.094 11.992L22.598 0.695999H25.83ZM76.2443 0.855999V23H73.3323V6.488L65.9723 23H63.9243L56.5323 6.456V23H53.6203V0.855999H56.7563L64.9483 19.16L73.1403 0.855999H76.2443ZM8.30355 34.242L5.12556 40.318V44H3.85155V40.318L0.659555 34.242H2.07355L4.48156 39.184L6.88955 34.242H8.30355ZM12.9933 44.126C12.2747 44.126 11.6213 43.9627 11.0333 43.636C10.4547 43.3093 9.99734 42.8473 9.66134 42.25C9.33467 41.6433 9.17134 40.9433 9.17134 40.15C9.17134 39.366 9.33934 38.6753 9.67534 38.078C10.0207 37.4713 10.4873 37.0093 11.0753 36.692C11.6633 36.3653 12.3213 36.202 13.0493 36.202C13.7773 36.202 14.4353 36.3653 15.0233 36.692C15.6113 37.0093 16.0733 37.4667 16.4093 38.064C16.7547 38.6613 16.9273 39.3567 16.9273 40.15C16.9273 40.9433 16.75 41.6433 16.3953 42.25C16.05 42.8473 15.5787 43.3093 14.9813 43.636C14.384 43.9627 13.7213 44.126 12.9933 44.126ZM12.9933 43.006C13.4507 43.006 13.88 42.8987 14.2813 42.684C14.6827 42.4693 15.0047 42.1473 15.2473 41.718C15.4993 41.2887 15.6253 40.766 15.6253 40.15C15.6253 39.534 15.504 39.0113 15.2613 38.582C15.0187 38.1527 14.7013 37.8353 14.3093 37.63C13.9173 37.4153 13.4927 37.308 13.0353 37.308C12.5687 37.308 12.1393 37.4153 11.7473 37.63C11.3647 37.8353 11.0567 38.1527 10.8233 38.582C10.59 39.0113 10.4733 39.534 10.4733 40.15C10.4733 40.7753 10.5853 41.3027 10.8093 41.732C11.0427 42.1613 11.3507 42.4833 11.7333 42.698C12.116 42.9033 12.536 43.006 12.9933 43.006ZM25.4064 36.328V44H24.1324V42.866C23.8897 43.258 23.5491 43.566 23.1104 43.79C22.6811 44.0047 22.2051 44.112 21.6824 44.112C21.0851 44.112 20.5484 43.9907 20.0724 43.748C19.5964 43.496 19.2184 43.1227 18.9384 42.628C18.6677 42.1333 18.5324 41.5313 18.5324 40.822V36.328H19.7924V40.654C19.7924 41.41 19.9837 41.9933 20.3664 42.404C20.7491 42.8053 21.2717 43.006 21.9344 43.006C22.6157 43.006 23.1524 42.796 23.5444 42.376C23.9364 41.956 24.1324 41.3447 24.1324 40.542V36.328H25.4064ZM28.8315 37.574C29.0555 37.1353 29.3728 36.7947 29.7835 36.552C30.2035 36.3093 30.7122 36.188 31.3095 36.188V37.504H30.9735C29.5455 37.504 28.8315 38.2787 28.8315 39.828V44H27.5575V36.328H28.8315V37.574ZM62.9535 34.312V44H61.6795V36.776L58.4595 44H57.5635L54.3295 36.762V44H53.0555V34.312H54.4275L58.0115 42.32L61.5955 34.312H62.9535ZM64.6381 40.136C64.6381 39.352 64.7968 38.666 65.1141 38.078C65.4315 37.4807 65.8655 37.0187 66.4161 36.692C66.9761 36.3653 67.5968 36.202 68.2781 36.202C68.9501 36.202 69.5335 36.3467 70.0281 36.636C70.5228 36.9253 70.8915 37.2893 71.1341 37.728V36.328H72.4221V44H71.1341V42.572C70.8821 43.02 70.5041 43.3933 70.0001 43.692C69.5055 43.9813 68.9268 44.126 68.2641 44.126C67.5828 44.126 66.9668 43.958 66.4161 43.622C65.8655 43.286 65.4315 42.8147 65.1141 42.208C64.7968 41.6013 64.6381 40.9107 64.6381 40.136ZM71.1341 40.15C71.1341 39.5713 71.0175 39.0673 70.7841 38.638C70.5508 38.2087 70.2335 37.882 69.8321 37.658C69.4401 37.4247 69.0061 37.308 68.5301 37.308C68.0541 37.308 67.6201 37.42 67.2281 37.644C66.8361 37.868 66.5235 38.1947 66.2901 38.624C66.0568 39.0533 65.9401 39.5573 65.9401 40.136C65.9401 40.724 66.0568 41.2373 66.2901 41.676C66.5235 42.1053 66.8361 42.4367 67.2281 42.67C67.6201 42.894 68.0541 43.006 68.5301 43.006C69.0061 43.006 69.4401 42.894 69.8321 42.67C70.2335 42.4367 70.5508 42.1053 70.7841 41.676C71.0175 41.2373 71.1341 40.7287 71.1341 40.15ZM78.8591 44L75.8491 40.612V44H74.5751V33.64H75.8491V39.73L78.8031 36.328H80.5811L76.9691 40.15L80.5951 44H78.8591ZM88.7801 39.87C88.7801 40.1127 88.7661 40.3693 88.7381 40.64H82.6061C82.6528 41.396 82.9095 41.9887 83.3761 42.418C83.8521 42.838 84.4261 43.048 85.0981 43.048C85.6488 43.048 86.1061 42.922 86.4701 42.67C86.8435 42.4087 87.1048 42.0633 87.2541 41.634H88.6261C88.4208 42.3713 88.0101 42.9733 87.3941 43.44C86.7781 43.8973 86.0128 44.126 85.0981 44.126C84.3701 44.126 83.7168 43.9627 83.1381 43.636C82.5688 43.3093 82.1208 42.8473 81.7941 42.25C81.4675 41.6433 81.3041 40.9433 81.3041 40.15C81.3041 39.3567 81.4628 38.6613 81.7801 38.064C82.0975 37.4667 82.5408 37.0093 83.1101 36.692C83.6888 36.3653 84.3515 36.202 85.0981 36.202C85.8261 36.202 86.4701 36.3607 87.0301 36.678C87.5901 36.9953 88.0195 37.434 88.3181 37.994C88.6261 38.5447 88.7801 39.17 88.7801 39.87ZM87.4641 39.604C87.4641 39.1187 87.3568 38.7033 87.1421 38.358C86.9275 38.0033 86.6335 37.7373 86.2601 37.56C85.8961 37.3733 85.4901 37.28 85.0421 37.28C84.3981 37.28 83.8475 37.4853 83.3901 37.896C82.9421 38.3067 82.6855 38.876 82.6201 39.604H87.4641ZM91.7358 37.574C91.9598 37.1353 92.2771 36.7947 92.6878 36.552C93.1078 36.3093 93.6165 36.188 94.2138 36.188V37.504H93.8778C92.4498 37.504 91.7358 38.2787 91.7358 39.828V44H90.4618V36.328H91.7358V37.574Z" fill="black" />
	<path d="M27.8135 11.832C27.8135 9.656 28.3042 7.704 29.2855 5.976C30.2668 4.22667 31.6002 2.86133 33.2855 1.88C34.9922 0.898666 36.8802 0.407999 38.9495 0.407999C41.3815 0.407999 43.5042 0.994666 45.3175 2.168C47.1308 3.34133 48.4535 5.00533 49.2855 7.16H45.7975C45.1788 5.816 44.2828 4.78133 43.1095 4.056C41.9575 3.33067 40.5708 2.968 38.9495 2.968C37.3922 2.968 35.9948 3.33067 34.7575 4.056C33.5202 4.78133 32.5495 5.816 31.8455 7.16C31.1415 8.48267 30.7895 10.04 30.7895 11.832C30.7895 13.6027 31.1415 15.16 31.8455 16.504C32.5495 17.8267 33.5202 18.8507 34.7575 19.576C35.9948 20.3013 37.3922 20.664 38.9495 20.664C40.5708 20.664 41.9575 20.312 43.1095 19.608C44.2828 18.8827 45.1788 17.848 45.7975 16.504H49.2855C48.4535 18.6373 47.1308 20.2907 45.3175 21.464C43.5042 22.616 41.3815 23.192 38.9495 23.192C36.8802 23.192 34.9922 22.712 33.2855 21.752C31.6002 20.7707 30.2668 19.416 29.2855 17.688C28.3042 15.96 27.8135 14.008 27.8135 11.832ZM32.3041 39.114C32.3041 38.162 32.5188 37.308 32.9481 36.552C33.3775 35.7867 33.9608 35.1893 34.6981 34.76C35.4448 34.3307 36.2708 34.116 37.1761 34.116C38.2401 34.116 39.1688 34.3727 39.9621 34.886C40.7555 35.3993 41.3341 36.1273 41.6981 37.07H40.1721C39.9015 36.482 39.5095 36.0293 38.9961 35.712C38.4921 35.3947 37.8855 35.236 37.1761 35.236C36.4948 35.236 35.8835 35.3947 35.3421 35.712C34.8008 36.0293 34.3761 36.482 34.0681 37.07C33.7601 37.6487 33.6061 38.33 33.6061 39.114C33.6061 39.8887 33.7601 40.57 34.0681 41.158C34.3761 41.7367 34.8008 42.1847 35.3421 42.502C35.8835 42.8193 36.4948 42.978 37.1761 42.978C37.8855 42.978 38.4921 42.824 38.9961 42.516C39.5095 42.1987 39.9015 41.746 40.1721 41.158H41.6981C41.3341 42.0913 40.7555 42.8147 39.9621 43.328C39.1688 43.832 38.2401 44.084 37.1761 44.084C36.2708 44.084 35.4448 43.874 34.6981 43.454C33.9608 43.0247 33.3775 42.432 32.9481 41.676C32.5188 40.92 32.3041 40.066 32.3041 39.114ZM51.6586 34.242L47.9766 44H46.5066L42.8246 34.242H44.1826L47.2486 42.656L50.3146 34.242H51.6586Z" fill="#57BD34" />
</svg>
